<svg width="667" height="377" viewBox="0 0 667 377" fill="none" xmlns="http://www.w3.org/2000/svg">
<g id="OBJECTS">
<g id="Group">
<path id="Vector" d="M485.123 204.199L177.783 198.423L181.376 23.431L233.049 0L489.217 4.81384L485.123 204.199Z" fill="#F0F0F0"/>
<path id="Vector_2" d="M487.199 201.33H179.801V27.5797L234.91 1.90691H487.199V201.33Z" fill="#CAE2FC"/>
<path id="Vector_3" d="M466.549 186.552L197.413 183.215L201.503 27.3743L221.492 13.8064L469.587 17.2537L466.549 186.552Z" fill="#A9D1FC"/>
<path id="Vector_4" d="M469.587 183.215H197.413V30.5419L213.856 17.2537H469.587V183.215Z" fill="white"/>
<path id="Vector_5" opacity="0.1" d="M179.801 27.5797L202.046 41.323C203.076 41.9596 204.445 41.7163 205.17 40.77L234.91 1.90533L179.801 27.5797Z" fill="black"/>
<path id="Vector_6" d="M179.801 27.5797L201.828 36.7887C203.326 37.4144 205.078 37.0084 206.108 35.795L234.91 1.90691L179.801 27.5797Z" fill="#A9D1FC"/>
<path id="404" d="M235.768 113.156L270.808 64.0038H279.928V112.868C282.232 112.804 284.12 112.644 285.592 112.388C287.064 112.068 288.216 111.588 289.048 110.948C289.88 110.244 290.456 109.316 290.776 108.164C291.096 107.012 291.256 105.508 291.256 103.652H294.808V126.98H291.256C291.256 125.252 291.096 123.844 290.776 122.756C290.456 121.668 289.88 120.836 289.048 120.26C288.216 119.62 287.064 119.204 285.592 119.012C284.12 118.756 282.232 118.596 279.928 118.532V121.508C279.928 123.748 280.024 125.7 280.216 127.364C280.472 129.028 280.92 130.436 281.56 131.588C282.2 132.676 283.096 133.508 284.248 134.084C285.464 134.66 287 134.98 288.856 135.044V138.884H255.928V135.044C258.168 134.98 259.96 134.66 261.304 134.084C262.712 133.444 263.768 132.58 264.472 131.492C265.24 130.404 265.752 129.092 266.008 127.556C266.264 126.02 266.392 124.228 266.392 122.18V118.916H235.768V113.156ZM266.392 81.7638H266.008L243.928 112.868H266.392V81.7638ZM334.75 64.0038C339.166 64.0038 343.294 64.9958 347.134 66.9798C351.038 68.9638 354.43 71.6838 357.31 75.1398C360.19 78.5958 362.462 82.6598 364.126 87.3318C365.854 92.0038 366.718 97.0598 366.718 102.5C366.718 107.684 365.854 112.548 364.126 117.092C362.462 121.636 360.19 125.604 357.31 128.996C354.43 132.324 351.038 134.98 347.134 136.964C343.294 138.884 339.166 139.844 334.75 139.844C330.398 139.844 326.302 138.884 322.462 136.964C318.686 134.98 315.358 132.324 312.478 128.996C309.662 125.604 307.422 121.636 305.758 117.092C304.094 112.548 303.262 107.684 303.262 102.5C303.262 97.0598 304.094 92.0038 305.758 87.3318C307.422 82.6598 309.662 78.5958 312.478 75.1398C315.358 71.6838 318.686 68.9638 322.462 66.9798C326.302 64.9958 330.398 64.0038 334.75 64.0038ZM334.75 134.276C337.054 134.276 339.102 133.796 340.894 132.836C342.75 131.812 344.318 130.084 345.598 127.652C346.878 125.22 347.838 121.988 348.478 117.956C349.182 113.924 349.534 108.868 349.534 102.788C349.534 96.4518 349.182 91.1718 348.478 86.9478C347.838 82.6598 346.878 79.2358 345.598 76.6758C344.318 74.1158 342.75 72.2918 340.894 71.2038C339.102 70.1158 337.054 69.5718 334.75 69.5718C332.446 69.5718 330.366 70.1158 328.51 71.2038C326.718 72.2918 325.182 74.1158 323.902 76.6758C322.622 79.2358 321.63 82.6598 320.926 86.9478C320.286 91.1718 319.966 96.4518 319.966 102.788C319.966 108.868 320.286 113.924 320.926 117.956C321.63 121.988 322.622 125.22 323.902 127.652C325.182 130.084 326.718 131.812 328.51 132.836C330.366 133.796 332.446 134.276 334.75 134.276ZM371.987 113.156L407.027 64.0038H416.147V112.868C418.451 112.804 420.339 112.644 421.811 112.388C423.283 112.068 424.435 111.588 425.267 110.948C426.099 110.244 426.675 109.316 426.995 108.164C427.315 107.012 427.475 105.508 427.475 103.652H431.027V126.98H427.475C427.475 125.252 427.315 123.844 426.995 122.756C426.675 121.668 426.099 120.836 425.267 120.26C424.435 119.62 423.283 119.204 421.811 119.012C420.339 118.756 418.451 118.596 416.147 118.532V121.508C416.147 123.748 416.243 125.7 416.435 127.364C416.691 129.028 417.139 130.436 417.779 131.588C418.419 132.676 419.315 133.508 420.467 134.084C421.683 134.66 423.219 134.98 425.075 135.044V138.884H392.147V135.044C394.387 134.98 396.179 134.66 397.523 134.084C398.931 133.444 399.987 132.58 400.691 131.492C401.459 130.404 401.971 129.092 402.227 127.556C402.483 126.02 402.611 124.228 402.611 122.18V118.916H371.987V113.156ZM402.611 81.7638H402.227L380.147 112.868H402.611V81.7638Z" fill="#FF765E"/>
<g id="Group_2">
<path id="Vector_7" opacity="0.1" d="M470.963 23.4089C473.87 23.4089 476.227 21.1539 476.227 18.3723C476.227 15.5906 473.87 13.3356 470.963 13.3356C468.055 13.3356 465.699 15.5906 465.699 18.3723C465.699 21.1539 468.055 23.4089 470.963 23.4089Z" fill="black"/>
<path id="Vector_8" d="M470.48 22.2903C473.388 22.2903 475.744 20.0353 475.744 17.2537C475.744 14.4721 473.388 12.2171 470.48 12.2171C467.573 12.2171 465.216 14.4721 465.216 17.2537C465.216 20.0353 467.573 22.2903 470.48 22.2903Z" fill="#66A1E3"/>
<path id="Vector_9" d="M473.448 17.2537C473.448 18.8209 472.118 20.0927 470.48 20.0927C468.842 20.0927 467.513 18.8225 467.513 17.2537C467.513 15.6849 468.841 14.4147 470.48 14.4147C472.118 14.4147 473.448 15.6849 473.448 17.2537Z" fill="#78B3F5"/>
<g id="Group_3">
<path id="Vector_10" d="M470.789 14.7354C471.56 14.7354 472.257 15.0245 472.784 15.4859C472.241 14.8381 471.415 14.4147 470.479 14.4147C468.841 14.4147 467.512 15.6849 467.512 17.2537C467.512 18.0831 467.89 18.8225 468.484 19.3423C468.076 18.8557 467.822 18.2475 467.822 17.5744C467.824 16.0072 469.151 14.7354 470.789 14.7354Z" fill="#A8D1FF"/>
</g>
</g>
<g id="Group_4">
<path id="Vector_11" opacity="0.1" d="M473.689 195.158C476.596 195.158 478.953 192.903 478.953 190.121C478.953 187.339 476.596 185.084 473.689 185.084C470.782 185.084 468.425 187.339 468.425 190.121C468.425 192.903 470.782 195.158 473.689 195.158Z" fill="black"/>
<path id="Vector_12" d="M473.207 194.039C476.114 194.039 478.471 191.784 478.471 189.002C478.471 186.221 476.114 183.966 473.207 183.966C470.299 183.966 467.943 186.221 467.943 189.002C467.943 191.784 470.299 194.039 473.207 194.039Z" fill="#66A1E3"/>
<path id="Vector_13" d="M476.174 189.002C476.174 190.57 474.845 191.841 473.207 191.841C471.569 191.841 470.239 190.571 470.239 189.002C470.239 187.435 471.569 186.163 473.207 186.163C474.845 186.163 476.174 187.434 476.174 189.002Z" fill="#78B3F5"/>
<g id="Group_5">
<path id="Vector_14" d="M473.517 186.484C474.288 186.484 474.985 186.773 475.512 187.235C474.968 186.587 474.143 186.163 473.207 186.163C471.567 186.163 470.239 187.435 470.239 189.002C470.239 189.832 470.617 190.571 471.212 191.091C470.804 190.604 470.55 189.996 470.55 189.323C470.55 187.756 471.877 186.484 473.517 186.484Z" fill="#A8D1FF"/>
</g>
</g>
<g id="Group_6">
<path id="Vector_15" opacity="0.1" d="M197.654 189.562C200.561 189.562 202.918 187.307 202.918 184.525C202.918 181.743 200.561 179.488 197.654 179.488C194.747 179.488 192.39 181.743 192.39 184.525C192.39 187.307 194.747 189.562 197.654 189.562Z" fill="black"/>
<path id="Vector_16" d="M197.173 188.442C200.08 188.442 202.436 186.187 202.436 183.407C202.436 180.626 200.08 178.372 197.173 178.372C194.267 178.372 191.911 180.626 191.911 183.407C191.911 186.187 194.267 188.442 197.173 188.442Z" fill="#66A1E3"/>
<path id="Vector_17" d="M200.139 183.407C200.139 184.974 198.81 186.246 197.172 186.246C195.534 186.246 194.205 184.975 194.205 183.407C194.205 181.838 195.534 180.568 197.172 180.568C198.811 180.568 200.139 181.839 200.139 183.407Z" fill="#78B3F5"/>
<g id="Group_7">
<path id="Vector_18" d="M197.482 180.888C198.253 180.888 198.95 181.177 199.477 181.639C198.934 180.991 198.108 180.568 197.172 180.568C195.534 180.568 194.205 181.838 194.205 183.407C194.205 184.236 194.583 184.975 195.177 185.495C194.769 185.009 194.515 184.4 194.515 183.727C194.515 182.16 195.844 180.888 197.482 180.888Z" fill="#A8D1FF"/>
</g>
</g>
</g>
<path id="Vector_19" d="M667 296.446H0V325.103H667V296.446Z" fill="url(#paint0_radial_0_6)"/>
<g id="Group_8">
<g id="right-small-cactus">
<g id="Group_9">
<path id="Vector_20" d="M145.77 270.459C145.77 270.459 142.126 228.474 148.626 218.922C154.675 210.034 170.985 214.372 167.782 228.695C165.7 238.007 156.301 269.34 156.301 269.34L145.77 270.459Z" fill="url(#paint1_linear_0_6)"/>
<g id="Group_10">
<path id="Vector_21" d="M152.211 219.863C154.554 216.419 158.439 214.968 162.133 215.308C157.632 213.271 151.757 214.321 148.626 218.921C142.127 228.473 145.77 270.458 145.77 270.458L149.25 270.088C148.702 262.96 146.389 228.418 152.211 219.863Z" fill="#ADE68F"/>
</g>
</g>
<path id="Vector_22" d="M152.107 216.895L150.288 213.462" stroke="#88BD6D" stroke-width="0.6537" stroke-miterlimit="10" stroke-linecap="round" stroke-linejoin="round"/>
<path id="Vector_23" d="M158.978 215.745L159.339 211.91" stroke="#88BD6D" stroke-width="0.6537" stroke-miterlimit="10" stroke-linecap="round" stroke-linejoin="round"/>
<path id="Vector_24" d="M164.384 218.644L166.225 215.22" stroke="#88BD6D" stroke-width="0.6537" stroke-miterlimit="10" stroke-linecap="round" stroke-linejoin="round"/>
<path id="Vector_25" d="M166.856 223.241L169.735 220.552" stroke="#88BD6D" stroke-width="0.6537" stroke-miterlimit="10" stroke-linecap="round" stroke-linejoin="round"/>
<path id="Vector_26" d="M163.367 237.005L167.234 238.065" stroke="#88BD6D" stroke-width="0.6537" stroke-miterlimit="10" stroke-linecap="round" stroke-linejoin="round"/>
<path id="Vector_27" d="M162.107 243.522L165.929 242.323" stroke="#88BD6D" stroke-width="0.6537" stroke-miterlimit="10" stroke-linecap="round" stroke-linejoin="round"/>
<path id="Vector_28" d="M161.012 247.778L163.745 248.166" stroke="#88BD6D" stroke-width="0.6537" stroke-miterlimit="10" stroke-linecap="round" stroke-linejoin="round"/>
<path id="Vector_29" d="M166.684 228.012L169.818 226.501" stroke="#88BD6D" stroke-width="0.6537" stroke-miterlimit="10" stroke-linecap="round" stroke-linejoin="round"/>
<path id="Vector_30" d="M164.922 232.767L168.431 232.713" stroke="#88BD6D" stroke-width="0.6537" stroke-miterlimit="10" stroke-linecap="round" stroke-linejoin="round"/>
<path id="Vector_31" d="M150.149 220.838L146.808 218.693" stroke="#88BD6D" stroke-width="0.6537" stroke-miterlimit="10" stroke-linecap="round" stroke-linejoin="round"/>
</g>
<g id="left-cactus">
<g id="Group_11">
<path id="Vector_32" d="M134.084 264.95C134.084 264.95 116.722 219.56 120.88 207.103C124.748 195.511 144.171 195.57 145.175 212.347C145.828 223.254 145.38 260.651 145.38 260.651L134.084 264.95Z" fill="url(#paint2_linear_0_6)"/>
<g id="Group_12">
<path id="Vector_33" d="M125.145 207.102C126.644 202.611 130.481 199.878 134.675 199.179C129.05 198.235 122.883 201.102 120.88 207.102C116.722 219.56 134.084 264.949 134.084 264.949L137.818 263.529C134.948 255.802 121.421 218.258 125.145 207.102Z" fill="#ADE68F"/>
</g>
</g>
<path id="Vector_34" d="M123.338 223.941H119.486" stroke="#88BD6D" stroke-width="0.75" stroke-miterlimit="10" stroke-linecap="round" stroke-linejoin="round"/>
<path id="Vector_35" d="M124.834 231.592L120.236 231.971" stroke="#88BD6D" stroke-width="0.75" stroke-miterlimit="10" stroke-linecap="round" stroke-linejoin="round"/>
<path id="Vector_36" d="M126.987 238.653L122.683 240.245" stroke="#88BD6D" stroke-width="0.75" stroke-miterlimit="10" stroke-linecap="round" stroke-linejoin="round"/>
<path id="Vector_37" d="M124.086 203.848L120.984 200.578" stroke="#88BD6D" stroke-width="0.75" stroke-miterlimit="10" stroke-linecap="round" stroke-linejoin="round"/>
<path id="Vector_38" d="M131.321 200.578L130.506 196.232" stroke="#88BD6D" stroke-width="0.75" stroke-miterlimit="10" stroke-linecap="round" stroke-linejoin="round"/>
<path id="Vector_39" d="M138.225 202.213L139.173 197.891" stroke="#88BD6D" stroke-width="0.75" stroke-miterlimit="10" stroke-linecap="round" stroke-linejoin="round"/>
<path id="Vector_40" d="M142.418 206.582L144.751 202.771" stroke="#88BD6D" stroke-width="0.75" stroke-miterlimit="10" stroke-linecap="round" stroke-linejoin="round"/>
<path id="Vector_41" d="M142.93 222.823L147.545 222.872" stroke="#88BD6D" stroke-width="0.75" stroke-miterlimit="10" stroke-linecap="round" stroke-linejoin="round"/>
<path id="Vector_42" d="M143.605 230.4L147.454 227.962" stroke="#88BD6D" stroke-width="0.75" stroke-miterlimit="10" stroke-linecap="round" stroke-linejoin="round"/>
<path id="Vector_43" d="M143.745 235.426L146.893 235.062" stroke="#88BD6D" stroke-width="0.75" stroke-miterlimit="10" stroke-linecap="round" stroke-linejoin="round"/>
<path id="Vector_44" d="M143.745 211.91L146.731 209.327" stroke="#88BD6D" stroke-width="0.75" stroke-miterlimit="10" stroke-linecap="round" stroke-linejoin="round"/>
<path id="Vector_45" d="M143.306 217.683L147.17 216.603" stroke="#88BD6D" stroke-width="0.75" stroke-miterlimit="10" stroke-linecap="round" stroke-linejoin="round"/>
<path id="Vector_46" d="M123.171 208.781L118.796 207.378" stroke="#88BD6D" stroke-width="0.75" stroke-miterlimit="10" stroke-linecap="round" stroke-linejoin="round"/>
<path id="Vector_47" d="M122.532 214.536L117.94 214.987" stroke="#88BD6D" stroke-width="0.75" stroke-miterlimit="10" stroke-linecap="round" stroke-linejoin="round"/>
<path id="Vector_48" d="M127.83 209.49C128.295 209.49 128.672 209.129 128.672 208.684C128.672 208.239 128.295 207.879 127.83 207.879C127.364 207.879 126.987 208.239 126.987 208.684C126.987 209.129 127.364 209.49 127.83 209.49Z" fill="#88BD6D"/>
<path id="Vector_49" d="M136.13 212.451C136.13 213.195 135.499 213.797 134.723 213.797C133.947 213.797 133.316 213.195 133.316 212.451C133.316 211.707 133.947 211.105 134.723 211.105C135.501 211.105 136.13 211.708 136.13 212.451Z" fill="#88BD6D"/>
<path id="Vector_50" d="M141.381 226.786C140.481 227.959 138.759 228.212 137.534 227.35C136.308 226.489 136.044 224.842 136.944 223.669C137.844 222.497 139.566 222.244 140.791 223.105C142.017 223.966 142.281 225.614 141.381 226.786Z" fill="#88BD6D"/>
<path id="Vector_51" d="M136.353 237.16C135.721 237.985 134.657 238.267 133.98 237.792C133.303 237.316 133.267 236.261 133.899 235.436C134.532 234.612 135.595 234.329 136.272 234.804C136.949 235.28 136.985 236.335 136.353 237.16Z" fill="#88BD6D"/>
<path id="Vector_52" d="M131.707 218.901C132.37 218.901 132.907 218.387 132.907 217.753C132.907 217.118 132.37 216.604 131.707 216.604C131.044 216.604 130.506 217.118 130.506 217.753C130.506 218.387 131.044 218.901 131.707 218.901Z" fill="#88BD6D"/>
</g>
<g id="flower-pot">
<path id="Vector_53" d="M120.236 257.017L124.293 300.55H130.346L129.918 298.283H140.882L141.09 300.55H150.463L150.968 298.283H159.562L159.437 300.55H164.911L168.968 257.017H120.236Z" fill="#A87C56"/>
<path id="Vector_54" d="M128.464 257.017H120.236L124.293 300.55H130.346L129.918 298.283H133.067L128.464 257.017Z" fill="#BA8A60"/>
<path id="Vector_55" d="M120.667 261.643L168.282 264.367L168.968 257.017H120.236L120.667 261.643Z" fill="url(#paint3_linear_0_6)"/>
<path id="Vector_56" d="M169.681 260.757L170.419 252.832H118.784L119.522 260.757H169.681Z" fill="#D68E4F"/>
<path id="Vector_57" d="M126.906 252.832H118.784L119.522 260.757H127.892L126.906 252.832Z" fill="#E3A874"/>
</g>
</g>
<path id="Page not found." d="M234 345.764C234 347.204 233.44 348.304 232.32 349.064C231.2 349.81 229.573 350.184 227.44 350.184H225.74V353.704C225.74 354.21 225.773 354.624 225.84 354.944C225.907 355.25 226.047 355.49 226.26 355.664C226.473 355.837 226.767 355.95 227.14 356.004C227.513 356.057 228.013 356.084 228.64 356.084V356.884H220.7V356.084C221.14 356.07 221.5 356.03 221.78 355.964C222.06 355.897 222.273 355.784 222.42 355.624C222.567 355.464 222.667 355.237 222.72 354.944C222.773 354.65 222.8 354.27 222.8 353.804V344.564C222.8 344.097 222.773 343.724 222.72 343.444C222.68 343.15 222.593 342.924 222.46 342.764C222.327 342.59 222.133 342.477 221.88 342.424C221.64 342.357 221.32 342.31 220.92 342.284V341.484H227.84C229.867 341.484 231.4 341.844 232.44 342.564C233.48 343.284 234 344.35 234 345.764ZM225.74 348.984H227.04C228.333 348.984 229.28 348.724 229.88 348.204C230.48 347.684 230.78 346.864 230.78 345.744C230.78 344.744 230.527 343.97 230.02 343.424C229.513 342.877 228.72 342.604 227.64 342.604H226.1C225.86 342.604 225.74 342.717 225.74 342.944V348.984ZM241.021 351.184C239.901 351.69 239.054 352.164 238.481 352.604C237.921 353.03 237.641 353.477 237.641 353.944C237.641 354.33 237.747 354.637 237.961 354.864C238.174 355.09 238.441 355.204 238.761 355.204C239.081 355.204 239.381 355.15 239.661 355.044C239.941 354.924 240.181 354.77 240.381 354.584C240.581 354.397 240.734 354.177 240.841 353.924C240.961 353.657 241.021 353.377 241.021 353.084V351.184ZM241.021 350.124V349.284C241.021 348.51 240.881 347.95 240.601 347.604C240.334 347.244 239.914 347.064 239.341 347.064C238.954 347.064 238.661 347.17 238.461 347.384C238.261 347.584 238.074 347.924 237.901 348.404C237.781 348.737 237.607 348.997 237.381 349.184C237.167 349.37 236.867 349.464 236.481 349.464C236.107 349.464 235.821 349.35 235.621 349.124C235.421 348.897 235.321 348.577 235.321 348.164C235.321 347.524 235.667 347.017 236.361 346.644C237.067 346.27 238.127 346.084 239.541 346.084C241.034 346.084 242.101 346.357 242.741 346.904C243.381 347.437 243.701 348.337 243.701 349.604V353.984C243.701 355.117 243.927 355.684 244.381 355.684C244.634 355.684 244.867 355.597 245.081 355.424L245.381 356.004C245.194 356.337 244.901 356.604 244.501 356.804C244.114 356.99 243.674 357.084 243.181 357.084C242.567 357.084 242.101 356.897 241.781 356.524C241.461 356.15 241.301 355.624 241.301 354.944H241.201C240.814 355.637 240.314 356.164 239.701 356.524C239.087 356.884 238.387 357.064 237.601 357.064C236.761 357.064 236.087 356.83 235.581 356.364C235.074 355.884 234.821 355.264 234.821 354.504C234.821 353.917 235.081 353.37 235.601 352.864C236.121 352.344 236.987 351.837 238.201 351.344L241.021 350.124ZM250.185 354.724C250.545 354.75 250.858 354.777 251.125 354.804C251.405 354.83 251.665 354.864 251.905 354.904C252.158 354.93 252.405 354.964 252.645 355.004C252.898 355.03 253.165 355.064 253.445 355.104C254.485 355.25 255.298 355.644 255.885 356.284C256.485 356.91 256.785 357.69 256.785 358.624C256.785 359.757 256.318 360.617 255.385 361.204C254.452 361.79 253.078 362.084 251.265 362.084C249.598 362.084 248.312 361.837 247.405 361.344C246.512 360.864 246.065 360.177 246.065 359.284C246.065 358.59 246.245 358.064 246.605 357.704C246.965 357.357 247.418 357.184 247.965 357.184C248.312 357.184 248.645 357.25 248.965 357.384C249.298 357.53 249.578 357.737 249.805 358.004C249.458 358.07 249.172 358.224 248.945 358.464C248.732 358.717 248.625 359.01 248.625 359.344C248.625 359.877 248.858 360.284 249.325 360.564C249.805 360.857 250.505 361.004 251.425 361.004C253.425 361.004 254.425 360.37 254.425 359.104C254.425 358.65 254.272 358.257 253.965 357.924C253.672 357.604 253.245 357.41 252.685 357.344L249.185 356.864C247.705 356.664 246.965 356.004 246.965 354.884C246.965 354.337 247.138 353.89 247.485 353.544C247.845 353.197 248.352 352.957 249.005 352.824V352.744C248.698 352.624 248.418 352.457 248.165 352.244C247.925 352.03 247.712 351.784 247.525 351.504C247.338 351.224 247.192 350.924 247.085 350.604C246.992 350.27 246.945 349.93 246.945 349.584C246.945 349.09 247.045 348.63 247.245 348.204C247.458 347.764 247.745 347.39 248.105 347.084C248.478 346.777 248.912 346.537 249.405 346.364C249.912 346.177 250.458 346.084 251.045 346.084C251.618 346.084 252.178 346.17 252.725 346.344C253.272 346.517 253.738 346.757 254.125 347.064C254.432 346.877 254.698 346.724 254.925 346.604C255.152 346.47 255.358 346.37 255.545 346.304C255.745 346.224 255.925 346.17 256.085 346.144C256.245 346.104 256.405 346.084 256.565 346.084C257.072 346.084 257.478 346.197 257.785 346.424C258.105 346.65 258.265 346.95 258.265 347.324C258.265 347.604 258.178 347.837 258.005 348.024C257.832 348.197 257.605 348.284 257.325 348.284C257.125 348.284 256.965 348.244 256.845 348.164C256.725 348.07 256.605 347.97 256.485 347.864C256.378 347.744 256.265 347.644 256.145 347.564C256.025 347.47 255.865 347.424 255.665 347.424C255.385 347.424 255.118 347.604 254.865 347.964C254.998 348.19 255.092 348.437 255.145 348.704C255.198 348.957 255.225 349.257 255.225 349.604C255.225 350.11 255.145 350.577 254.985 351.004C254.825 351.43 254.572 351.81 254.225 352.144C253.892 352.464 253.458 352.737 252.925 352.964C252.392 353.19 251.745 353.344 250.985 353.424C250.345 353.49 249.898 353.577 249.645 353.684C249.405 353.79 249.285 353.95 249.285 354.164C249.285 354.484 249.585 354.67 250.185 354.724ZM251.145 352.284C251.572 352.284 251.905 352.057 252.145 351.604C252.385 351.15 252.505 350.517 252.505 349.704C252.505 348.877 252.385 348.244 252.145 347.804C251.905 347.35 251.565 347.124 251.125 347.124C250.672 347.124 250.312 347.35 250.045 347.804C249.778 348.257 249.645 348.877 249.645 349.664C249.645 350.464 249.778 351.104 250.045 351.584C250.325 352.05 250.692 352.284 251.145 352.284ZM268.515 355.024C267.302 356.397 265.788 357.084 263.975 357.084C263.148 357.084 262.395 356.957 261.715 356.704C261.048 356.437 260.475 356.07 259.995 355.604C259.515 355.124 259.142 354.557 258.875 353.904C258.608 353.25 258.475 352.524 258.475 351.724C258.475 350.897 258.615 350.144 258.895 349.464C259.175 348.77 259.568 348.177 260.075 347.684C260.595 347.177 261.202 346.784 261.895 346.504C262.602 346.224 263.375 346.084 264.215 346.084C265.628 346.084 266.728 346.464 267.515 347.224C268.302 347.984 268.695 349.05 268.695 350.424C268.695 350.637 268.662 350.77 268.595 350.824C268.528 350.864 268.342 350.884 268.035 350.884H261.595C261.542 351.004 261.515 351.224 261.515 351.544C261.515 352.85 261.795 353.884 262.355 354.644C262.928 355.404 263.702 355.784 264.675 355.784C265.235 355.784 265.788 355.657 266.335 355.404C266.895 355.15 267.435 354.79 267.955 354.324L268.515 355.024ZM264.635 349.764C265.168 349.764 265.508 349.737 265.655 349.684C265.815 349.617 265.895 349.47 265.895 349.244C265.895 348.657 265.728 348.177 265.395 347.804C265.062 347.43 264.642 347.244 264.135 347.244C263.562 347.244 263.048 347.484 262.595 347.964C262.155 348.43 261.868 349.03 261.735 349.764H264.635ZM279.867 353.624C279.867 354.17 279.88 354.604 279.907 354.924C279.947 355.23 280.02 355.47 280.127 355.644C280.247 355.804 280.42 355.91 280.647 355.964C280.887 356.017 281.207 356.057 281.607 356.084V356.884H275.307V356.084C275.693 356.057 276 356.017 276.227 355.964C276.467 355.91 276.647 355.804 276.767 355.644C276.9 355.484 276.987 355.257 277.027 354.964C277.067 354.67 277.087 354.27 277.087 353.764V351.264C277.087 350.477 277.073 349.844 277.047 349.364C277.02 348.87 276.987 348.537 276.947 348.364C276.907 348.19 276.853 348.05 276.787 347.944C276.72 347.824 276.62 347.737 276.487 347.684C276.353 347.617 276.187 347.577 275.987 347.564C275.787 347.537 275.533 347.524 275.227 347.524V346.844L279.087 346.084L279.347 347.844H279.427C279.867 347.284 280.387 346.85 280.987 346.544C281.587 346.237 282.247 346.084 282.967 346.084C283.82 346.084 284.507 346.204 285.027 346.444C285.56 346.67 286.033 347.057 286.447 347.604C286.673 347.91 286.873 348.31 287.047 348.804C287.22 349.284 287.307 349.95 287.307 350.804V353.624C287.307 354.17 287.32 354.604 287.347 354.924C287.387 355.23 287.46 355.47 287.567 355.644C287.687 355.804 287.86 355.91 288.087 355.964C288.313 356.017 288.62 356.057 289.007 356.084V356.884H282.747V356.084C283.147 356.07 283.46 356.037 283.687 355.984C283.927 355.917 284.107 355.804 284.227 355.644C284.347 355.484 284.427 355.257 284.467 354.964C284.507 354.657 284.527 354.257 284.527 353.764V351.044C284.527 350.364 284.487 349.79 284.407 349.324C284.327 348.857 284.193 348.484 284.007 348.204C283.833 347.91 283.6 347.704 283.307 347.584C283.013 347.45 282.647 347.384 282.207 347.384C281.78 347.384 281.413 347.504 281.107 347.744C280.8 347.984 280.533 348.317 280.307 348.744C280.187 348.984 280.08 349.297 279.987 349.684C279.907 350.057 279.867 350.45 279.867 350.864V353.624ZM295.818 346.084C296.618 346.084 297.371 346.224 298.078 346.504C298.798 346.77 299.424 347.144 299.958 347.624C300.504 348.104 300.931 348.677 301.238 349.344C301.558 349.997 301.718 350.717 301.718 351.504C301.718 352.317 301.558 353.064 301.238 353.744C300.931 354.424 300.504 355.01 299.958 355.504C299.424 355.997 298.798 356.384 298.078 356.664C297.371 356.944 296.618 357.084 295.818 357.084C295.031 357.084 294.284 356.95 293.578 356.684C292.871 356.404 292.251 356.017 291.718 355.524C291.184 355.03 290.764 354.444 290.458 353.764C290.151 353.07 289.998 352.317 289.998 351.504C289.998 350.717 290.151 349.99 290.458 349.324C290.764 348.657 291.184 348.084 291.718 347.604C292.251 347.124 292.871 346.75 293.578 346.484C294.284 346.217 295.031 346.084 295.818 346.084ZM295.818 347.244C295.418 347.244 295.051 347.35 294.718 347.564C294.384 347.764 294.098 348.05 293.858 348.424C293.631 348.797 293.451 349.25 293.318 349.784C293.198 350.304 293.138 350.884 293.138 351.524C293.138 352.19 293.198 352.79 293.318 353.324C293.451 353.857 293.631 354.31 293.858 354.684C294.098 355.057 294.378 355.35 294.698 355.564C295.031 355.764 295.404 355.864 295.818 355.864C296.231 355.864 296.604 355.764 296.938 355.564C297.284 355.35 297.578 355.057 297.818 354.684C298.058 354.297 298.244 353.837 298.378 353.304C298.511 352.77 298.578 352.177 298.578 351.524C298.578 350.884 298.511 350.304 298.378 349.784C298.244 349.264 298.058 348.817 297.818 348.444C297.578 348.057 297.284 347.764 296.938 347.564C296.604 347.35 296.231 347.244 295.818 347.244ZM302.961 347.384V346.484C303.761 346.257 304.428 345.917 304.961 345.464C305.508 344.997 305.914 344.464 306.181 343.864H307.201V346.284H309.501V347.384H307.201V353.524C307.201 354.35 307.288 354.937 307.461 355.284C307.648 355.63 307.954 355.804 308.381 355.804C308.901 355.804 309.294 355.564 309.561 355.084L309.981 355.664C309.608 356.61 308.728 357.084 307.341 357.084C306.421 357.084 305.701 356.87 305.181 356.444C304.674 356.017 304.421 355.417 304.421 354.644V347.384H302.961ZM315.75 346.284H317.91V345.164C317.91 344.444 318.03 343.784 318.27 343.184C318.523 342.584 318.87 342.07 319.31 341.644C319.75 341.204 320.277 340.87 320.89 340.644C321.517 340.404 322.21 340.284 322.97 340.284C323.423 340.284 323.837 340.33 324.21 340.424C324.597 340.504 324.93 340.617 325.21 340.764C325.49 340.91 325.703 341.09 325.85 341.304C326.01 341.517 326.09 341.744 326.09 341.984C326.09 342.29 325.977 342.544 325.75 342.744C325.523 342.944 325.237 343.044 324.89 343.044C324.65 343.044 324.437 342.964 324.25 342.804C324.077 342.644 323.81 342.35 323.45 341.924C323.29 341.737 323.123 341.604 322.95 341.524C322.777 341.444 322.597 341.404 322.41 341.404C321.877 341.404 321.457 341.73 321.15 342.384C320.843 343.024 320.69 343.91 320.69 345.044V346.284H324.07V347.384H320.69V353.564C320.69 354.07 320.717 354.484 320.77 354.804C320.837 355.124 320.95 355.377 321.11 355.564C321.283 355.75 321.51 355.884 321.79 355.964C322.07 356.03 322.43 356.07 322.87 356.084V356.884H316.11V356.084C316.51 356.07 316.83 356.037 317.07 355.984C317.31 355.917 317.49 355.804 317.61 355.644C317.73 355.47 317.81 355.237 317.85 354.944C317.89 354.637 317.91 354.23 317.91 353.724V347.384H315.75V346.284ZM330.544 346.084C331.344 346.084 332.098 346.224 332.804 346.504C333.524 346.77 334.151 347.144 334.684 347.624C335.231 348.104 335.658 348.677 335.964 349.344C336.284 349.997 336.444 350.717 336.444 351.504C336.444 352.317 336.284 353.064 335.964 353.744C335.658 354.424 335.231 355.01 334.684 355.504C334.151 355.997 333.524 356.384 332.804 356.664C332.098 356.944 331.344 357.084 330.544 357.084C329.758 357.084 329.011 356.95 328.304 356.684C327.598 356.404 326.978 356.017 326.444 355.524C325.911 355.03 325.491 354.444 325.184 353.764C324.878 353.07 324.724 352.317 324.724 351.504C324.724 350.717 324.878 349.99 325.184 349.324C325.491 348.657 325.911 348.084 326.444 347.604C326.978 347.124 327.598 346.75 328.304 346.484C329.011 346.217 329.758 346.084 330.544 346.084ZM330.544 347.244C330.144 347.244 329.778 347.35 329.444 347.564C329.111 347.764 328.824 348.05 328.584 348.424C328.358 348.797 328.178 349.25 328.044 349.784C327.924 350.304 327.864 350.884 327.864 351.524C327.864 352.19 327.924 352.79 328.044 353.324C328.178 353.857 328.358 354.31 328.584 354.684C328.824 355.057 329.104 355.35 329.424 355.564C329.758 355.764 330.131 355.864 330.544 355.864C330.958 355.864 331.331 355.764 331.664 355.564C332.011 355.35 332.304 355.057 332.544 354.684C332.784 354.297 332.971 353.837 333.104 353.304C333.238 352.77 333.304 352.177 333.304 351.524C333.304 350.884 333.238 350.304 333.104 349.784C332.971 349.264 332.784 348.817 332.544 348.444C332.304 348.057 332.011 347.764 331.664 347.564C331.331 347.35 330.958 347.244 330.544 347.244ZM346.488 349.564C346.488 349.03 346.474 348.61 346.448 348.304C346.421 347.984 346.348 347.744 346.228 347.584C346.108 347.41 345.928 347.297 345.688 347.244C345.461 347.177 345.148 347.124 344.748 347.084V346.284H349.268V352.344C349.268 353.157 349.274 353.797 349.288 354.264C349.314 354.717 349.354 355.057 349.408 355.284C349.448 355.457 349.494 355.597 349.548 355.704C349.601 355.797 349.688 355.877 349.808 355.944C349.928 355.997 350.088 356.037 350.288 356.064C350.501 356.077 350.774 356.084 351.108 356.084V356.864L347.128 357.104L346.908 355.324H346.828C346.481 355.884 345.994 356.317 345.368 356.624C344.741 356.93 344.041 357.084 343.268 357.084C341.841 357.084 340.754 356.577 340.008 355.564C339.434 354.79 339.148 353.69 339.148 352.264V349.564C339.148 349.017 339.134 348.59 339.108 348.284C339.081 347.964 339.008 347.724 338.888 347.564C338.781 347.404 338.614 347.297 338.388 347.244C338.161 347.177 337.848 347.124 337.448 347.084V346.284H341.928V351.944C341.928 353.29 342.094 354.27 342.428 354.884C342.761 355.484 343.294 355.784 344.028 355.784C344.814 355.784 345.421 355.424 345.848 354.704C346.274 354.01 346.488 352.99 346.488 351.644V349.564ZM356.507 353.624C356.507 354.17 356.521 354.604 356.547 354.924C356.587 355.23 356.661 355.47 356.767 355.644C356.887 355.804 357.061 355.91 357.287 355.964C357.527 356.017 357.847 356.057 358.247 356.084V356.884H351.947V356.084C352.334 356.057 352.641 356.017 352.867 355.964C353.107 355.91 353.287 355.804 353.407 355.644C353.541 355.484 353.627 355.257 353.667 354.964C353.707 354.67 353.727 354.27 353.727 353.764V351.264C353.727 350.477 353.714 349.844 353.687 349.364C353.661 348.87 353.627 348.537 353.587 348.364C353.547 348.19 353.494 348.05 353.427 347.944C353.361 347.824 353.261 347.737 353.127 347.684C352.994 347.617 352.827 347.577 352.627 347.564C352.427 347.537 352.174 347.524 351.867 347.524V346.844L355.727 346.084L355.987 347.844H356.067C356.507 347.284 357.027 346.85 357.627 346.544C358.227 346.237 358.887 346.084 359.607 346.084C360.461 346.084 361.147 346.204 361.667 346.444C362.201 346.67 362.674 347.057 363.087 347.604C363.314 347.91 363.514 348.31 363.687 348.804C363.861 349.284 363.947 349.95 363.947 350.804V353.624C363.947 354.17 363.961 354.604 363.987 354.924C364.027 355.23 364.101 355.47 364.207 355.644C364.327 355.804 364.501 355.91 364.727 355.964C364.954 356.017 365.261 356.057 365.647 356.084V356.884H359.387V356.084C359.787 356.07 360.101 356.037 360.327 355.984C360.567 355.917 360.747 355.804 360.867 355.644C360.987 355.484 361.067 355.257 361.107 354.964C361.147 354.657 361.167 354.257 361.167 353.764V351.044C361.167 350.364 361.127 349.79 361.047 349.324C360.967 348.857 360.834 348.484 360.647 348.204C360.474 347.91 360.241 347.704 359.947 347.584C359.654 347.45 359.287 347.384 358.847 347.384C358.421 347.384 358.054 347.504 357.747 347.744C357.441 347.984 357.174 348.317 356.947 348.744C356.827 348.984 356.721 349.297 356.627 349.684C356.547 350.057 356.507 350.45 356.507 350.864V353.624ZM375.518 355.604H375.438C374.518 356.59 373.325 357.084 371.858 357.084C371.098 357.084 370.398 356.95 369.758 356.684C369.132 356.417 368.585 356.044 368.118 355.564C367.665 355.084 367.312 354.517 367.058 353.864C366.805 353.197 366.678 352.464 366.678 351.664C366.678 350.864 366.805 350.124 367.058 349.444C367.325 348.764 367.678 348.177 368.118 347.684C368.572 347.177 369.105 346.784 369.718 346.504C370.345 346.224 371.018 346.084 371.738 346.084C372.405 346.084 372.992 346.184 373.498 346.384C374.018 346.584 374.472 346.924 374.858 347.404H374.938V345.704C374.938 344.917 374.925 344.244 374.898 343.684C374.885 343.11 374.858 342.737 374.818 342.564C374.752 342.284 374.545 342.084 374.198 341.964C373.865 341.83 373.345 341.764 372.638 341.764V341.084L377.698 340.284V351.724C377.698 352.724 377.705 353.497 377.718 354.044C377.745 354.577 377.785 354.984 377.838 355.264C377.865 355.437 377.905 355.577 377.958 355.684C378.012 355.79 378.092 355.877 378.198 355.944C378.305 355.997 378.445 356.037 378.618 356.064C378.805 356.077 379.038 356.084 379.318 356.084V356.864L375.518 357.084V355.604ZM374.898 351.144C374.898 350.637 374.845 350.17 374.738 349.744C374.632 349.304 374.472 348.917 374.258 348.584C374.018 348.197 373.712 347.904 373.338 347.704C372.965 347.504 372.565 347.404 372.138 347.404C371.352 347.404 370.752 347.764 370.338 348.484C369.925 349.204 369.718 350.25 369.718 351.624C369.718 353.01 369.925 354.077 370.338 354.824C370.752 355.57 371.345 355.944 372.118 355.944C372.558 355.944 372.978 355.83 373.378 355.604C373.778 355.377 374.105 355.07 374.358 354.684C374.545 354.39 374.678 354.03 374.758 353.604C374.852 353.164 374.898 352.604 374.898 351.924V351.144ZM380.865 355.604C380.865 355.177 381.005 354.817 381.285 354.524C381.578 354.217 381.938 354.064 382.365 354.064C382.805 354.064 383.172 354.217 383.465 354.524C383.758 354.817 383.905 355.177 383.905 355.604C383.905 356.017 383.758 356.37 383.465 356.664C383.172 356.944 382.805 357.084 382.365 357.084C381.938 357.084 381.578 356.944 381.285 356.664C381.005 356.37 380.865 356.017 380.865 355.604Z" fill="#969696"/>
<g id="Group_13">
<g id="cat-tail">
<path id="cat-tail_2" d="M481.256 376.714C461.917 378.146 443.191 370.472 430.563 355.427C427.424 351.689 428.05 346.224 431.956 343.221C435.858 340.219 441.575 340.812 444.713 344.554C457.205 359.432 475.049 361.32 487.567 358.138C501.109 354.692 510.365 345.532 512.333 333.631C515.477 314.622 505.46 299.734 496.621 286.597C491.682 279.262 487.42 272.925 485.876 266.41C484.77 261.733 487.831 257.084 492.721 256.022C497.61 254.963 502.468 257.894 503.576 262.57C504.413 266.1 508.04 271.49 511.878 277.197C521.417 291.376 534.481 310.793 530.256 336.344C527.179 354.953 512.606 369.733 492.23 374.918C488.576 375.85 484.904 376.444 481.256 376.714Z" fill="url(#paint4_linear_0_6)"/>
</g>
<path id="cat-stomach" d="M497.159 229.49C476.217 195.129 422.226 193.876 397.357 203.269C372.488 212.661 338.004 225.971 330.709 225.497C297.555 223.342 254.13 259.624 254.13 259.624C254.13 259.624 238.328 269.016 238.328 281.853C238.328 294.689 246.046 298.133 254.13 298.133C259.13 298.133 336.609 298.133 400.361 298.133C395.828 299.952 391.421 302.344 392.284 304.552C394.248 309.571 404.994 310.199 415.268 308.086C424.435 306.202 484.266 305.772 497.322 290.465C512.375 272.814 506.714 245.17 497.159 229.49Z" fill="url(#paint5_linear_0_6)"/>
<path id="Vector_58" opacity="0.31" d="M352.301 219.86L254.128 259.624C254.128 259.624 261.191 280.417 292.326 285.475L292.294 285.478C299.224 286.24 305.332 292.294 305.033 298.135H312.819C312.819 298.135 314.795 287.496 327.207 284.562L327.22 284.546C375.893 274.748 352.301 219.86 352.301 219.86Z" fill="#874732"/>
<g id="cat-ears">
<g id="Group_14">
<g id="Group_15">
<path id="Vector_59" d="M254.995 229.02C254.995 229.02 240.765 204.815 241.401 181.955C241.478 179.141 244.158 177.06 247.046 177.599C253.98 178.893 266.611 183.012 277.816 196.113L254.995 229.02Z" fill="url(#paint6_linear_0_6)"/>
<path id="Vector_60" opacity="0.5" d="M256.726 216.813C256.726 216.813 248.258 202.409 248.636 188.807C248.683 187.132 250.278 185.893 251.995 186.214C256.121 186.983 263.638 189.434 270.304 197.23L256.726 216.813Z" fill="#FF7C4F"/>
</g>
</g>
<g id="Group_16">
<g id="Group_17">
<path id="Vector_61" d="M334.606 209.696C334.606 209.696 335.055 181.926 323.106 162.121C321.634 159.683 318.243 159.077 315.972 160.867C310.522 165.167 301.47 174.548 298.149 191.178L334.606 209.696Z" fill="url(#paint7_linear_0_6)"/>
<path id="Vector_62" opacity="0.5" d="M327.003 199.753C327.003 199.753 327.27 183.23 320.16 171.445C319.285 169.995 317.265 169.633 315.916 170.7C312.673 173.259 307.287 178.841 305.311 188.735L327.003 199.753Z" fill="#FF7C4F"/>
</g>
</g>
</g>
<path id="cat-head" d="M286.267 187.178C257.531 194.153 242.091 227.731 252.523 255.303C262.956 282.875 292.653 281.883 310.246 277.612C327.84 273.342 354.441 260.668 349.872 231.671C345.306 202.676 315.003 180.203 286.267 187.178Z" fill="url(#paint8_linear_0_6)"/>
<path id="cat-head_2" d="M318.766 243.593C320.52 250.21 313.017 251.526 303.915 253.734C294.814 255.943 287.562 258.208 285.808 251.594C284.055 244.977 290.011 237.823 299.112 235.615C308.212 233.405 317.013 236.977 318.766 243.593Z" fill="#FFFBF7"/>
<g id="cat-head_3">
<path id="Vector_63" d="M320.523 217.228C314.609 216.882 308.928 219.396 305.4 223.954C303.772 226.055 306.909 228.873 308.559 226.744C311.489 222.958 315.715 221.052 320.642 221.339C323.408 221.502 323.264 217.389 320.523 217.228Z" fill="#874732"/>
<path id="Vector_64" d="M272.381 228.915C277.407 225.913 283.652 225.532 289.026 227.929C291.505 229.033 290.151 232.942 287.639 231.822C283.176 229.831 278.512 230.082 274.326 232.581C271.975 233.986 270.051 230.306 272.381 228.915Z" fill="#874732"/>
</g>
<g id="cat-head_4">
<path id="Vector_65" d="M302.078 246.803C297.23 247.98 293.204 245.5 292.928 242.566C292.653 239.631 296.198 238.953 299.766 238.086C303.334 237.22 306.79 236.199 308.009 238.904C309.229 241.612 306.926 245.628 302.078 246.803Z" fill="#874732"/>
</g>
<g id="cat-head_5" opacity="0.55">
<path id="Vector_66" d="M285.016 243.791C286.399 249.01 283.099 254.317 277.643 255.641C272.188 256.965 266.641 253.807 265.257 248.587C263.874 243.367 267.174 238.06 272.63 236.736C278.086 235.413 283.632 238.571 285.016 243.791Z" fill="#FF915E"/>
<path id="Vector_67" d="M335.334 231.577C336.718 236.797 333.417 242.103 327.962 243.427C322.506 244.751 316.96 241.593 315.576 236.373C314.193 231.153 317.493 225.846 322.949 224.523C328.404 223.199 333.949 226.357 335.334 231.577Z" fill="#FF915E"/>
</g>
<g id="cat-head_6">
<g id="Group_18">
<g id="Group_19">
<path id="Vector_68" d="M258.299 251.767C258.062 251.824 257.804 251.793 257.581 251.654C257.163 251.391 257.044 250.856 257.318 250.453C261.413 244.44 269.504 244.475 269.851 244.481C270.35 244.484 270.751 244.879 270.744 245.358C270.741 245.835 270.356 246.236 269.828 246.212C269.76 246.214 262.379 246.2 258.838 251.401C258.709 251.592 258.512 251.717 258.299 251.767Z" fill="#874732"/>
</g>
<g id="Group_20">
<path id="Vector_69" d="M264.82 258.796C264.645 258.839 264.462 258.834 264.278 258.768C263.811 258.602 263.572 258.103 263.748 257.651C265.687 252.684 271.393 249.913 271.636 249.797C272.11 249.573 272.632 249.761 272.851 250.187C273.076 250.614 272.893 251.135 272.443 251.35C272.391 251.374 267.132 253.938 265.446 258.261C265.337 258.539 265.099 258.728 264.82 258.796Z" fill="#874732"/>
</g>
</g>
<g id="Group_21">
<g id="Group_22">
<path id="Vector_70" d="M343.034 231.199C342.823 231.251 342.588 231.232 342.38 231.123C336.654 228.148 330.199 231.54 330.133 231.575C329.712 231.825 329.147 231.664 328.901 231.242C328.657 230.825 328.812 230.294 329.25 230.063C329.55 229.899 336.657 226.188 343.242 229.597C343.683 229.826 343.846 230.351 343.609 230.772C343.482 230.995 343.272 231.141 343.034 231.199Z" fill="#874732"/>
</g>
<g id="Group_23">
<path id="Vector_71" d="M340.803 240.351C340.524 240.419 340.22 240.361 339.986 240.163C336.355 237.135 330.45 237.28 330.392 237.283C329.89 237.299 329.471 236.924 329.455 236.447C329.435 235.967 329.796 235.558 330.328 235.55C330.599 235.541 336.999 235.373 341.175 238.86C341.555 239.173 341.593 239.719 341.261 240.081C341.137 240.222 340.978 240.31 340.803 240.351Z" fill="#874732"/>
</g>
</g>
</g>
<g id="cat-head_7" opacity="0.31">
<path id="Vector_72" d="M306.432 261.054C302.518 262.003 298.891 261.307 298.661 261.259C298.135 261.152 297.793 260.656 297.903 260.149C298.012 259.638 298.546 259.316 299.063 259.42C299.138 259.436 306.599 260.85 310.941 256.581C311.324 256.208 311.944 256.197 312.328 256.562C312.718 256.926 312.725 257.523 312.348 257.889C310.595 259.611 308.473 260.559 306.432 261.054Z" fill="#874732"/>
</g>
<g id="cat-stomach_2" opacity="0.5">
<path id="Vector_73" d="M396.895 203.442C400.574 210.095 405.07 219.876 406.782 230.395C409.19 245.178 419.965 241.765 423.117 236.894C425.573 233.099 427.769 212.065 423.983 198.417C413.732 198.868 404.37 200.621 397.357 203.27C397.205 203.325 397.047 203.385 396.895 203.442Z" fill="#FF7C4F"/>
<path id="Vector_74" d="M429.481 198.302C431.41 204.796 433.082 212.775 433.063 220.943C433.025 235.902 444.226 234.145 448.135 229.806C450.539 227.137 454.546 213.816 455.392 201.412C446.791 199.265 437.93 198.335 429.481 198.302Z" fill="#FF7C4F"/>
<path id="Vector_75" d="M381.486 243.873C387.21 257.794 396.948 252.213 398.911 246.8C400.56 242.255 397.342 218.227 389.299 206.318C380.564 209.623 371.218 213.146 362.546 216.268C367.718 221.59 376.504 231.76 381.486 243.873Z" fill="#FF7C4F"/>
</g>
<path id="cat-stomach_3" opacity="0.31" d="M400.359 298.133C400.359 298.133 420.507 290.346 424.351 282.949C426.984 277.884 428.114 253.741 442.435 247.571C442.435 247.571 424.433 247.571 411.458 271.209C401.691 289.002 380.176 297.351 370.85 298.135C383.858 298.133 400.359 298.133 400.359 298.133Z" fill="#874732"/>
<g id="cat-stomach_4" opacity="0.31">
<path id="Vector_76" d="M287 293.123C286.461 293.123 286.02 293.542 286.02 294.062C286.02 294.58 286.457 294.997 287 295.002C287.217 295.002 291.86 295.095 292.58 298.133C293.245 298.133 293.901 298.133 294.578 298.133C294.015 294.225 289.491 293.123 287 293.123Z" fill="#874732"/>
<path id="Vector_77" d="M301.759 298.121C301.66 291.689 293.828 289.201 293.495 289.098C292.988 288.948 292.428 289.212 292.26 289.706C292.094 290.198 292.378 290.727 292.895 290.888C292.961 290.907 299.695 293.041 299.791 298.133C300.435 298.133 301.098 298.133 301.751 298.133C301.754 298.128 301.759 298.125 301.759 298.121Z" fill="#874732"/>
</g>
<g id="cat-stomach_5" opacity="0.31">
<path id="Vector_78" d="M317.762 298.133C318.837 293.46 323.129 291.646 323.337 291.564C323.836 291.359 324.065 290.809 323.855 290.332C323.644 289.858 323.061 289.627 322.574 289.833C322.316 289.934 316.929 292.22 315.799 298.133C316.446 298.133 317.108 298.133 317.762 298.133Z" fill="#874732"/>
<path id="Vector_79" d="M327.26 294.88C327.732 294.623 327.896 294.051 327.628 293.599C327.364 293.152 326.765 292.994 326.297 293.243C326.139 293.326 323.314 294.888 322.11 298.133C322.822 298.133 323.547 298.133 324.265 298.133C325.313 296.007 327.146 294.94 327.26 294.88Z" fill="#874732"/>
</g>
<g id="cat-stomach_6" opacity="0.31">
<path id="Vector_80" d="M406.921 302.729C406.673 302.816 401.804 304.598 399.063 308.691C399.753 308.826 400.448 308.952 401.204 309.031C403.671 305.938 407.54 304.511 407.591 304.494C408.098 304.317 408.362 303.778 408.174 303.29C407.986 302.802 407.411 302.563 406.921 302.729Z" fill="#874732"/>
<path id="Vector_81" d="M405.095 300.967C404.99 300.462 404.492 300.138 403.94 300.23C403.636 300.288 397.616 301.517 392.681 305.141C392.996 305.68 393.404 306.167 393.931 306.592C398.519 303.257 404.257 302.083 404.325 302.072C404.857 301.969 405.202 301.473 405.095 300.967Z" fill="#874732"/>
</g>
</g>
</g>
<defs>
<radialGradient id="paint0_radial_0_6" cx="0" cy="0" r="1" gradientUnits="userSpaceOnUse" gradientTransform="translate(331.554 298.118) scale(324.466 15.1958)">
<stop stop-color="#E8E8D0"/>
<stop offset="1" stop-color="white"/>
</radialGradient>
<linearGradient id="paint1_linear_0_6" x1="159.901" y1="211.319" x2="152.372" y2="256.461" gradientUnits="userSpaceOnUse">
<stop stop-color="#A1D685"/>
<stop offset="1" stop-color="#71C782"/>
</linearGradient>
<linearGradient id="paint2_linear_0_6" x1="132.922" y1="215.233" x2="136.578" y2="255.155" gradientUnits="userSpaceOnUse">
<stop offset="0.1134" stop-color="#A1D685"/>
<stop offset="1" stop-color="#71C782"/>
</linearGradient>
<linearGradient id="paint3_linear_0_6" x1="120.236" y1="260.692" x2="168.967" y2="260.692" gradientUnits="userSpaceOnUse">
<stop stop-color="#805E41"/>
<stop offset="1" stop-color="#A87C56"/>
</linearGradient>
<linearGradient id="paint4_linear_0_6" x1="487.498" y1="360.351" x2="465.544" y2="279.499" gradientUnits="userSpaceOnUse">
<stop stop-color="#FFDA5E"/>
<stop offset="1" stop-color="#E89540"/>
</linearGradient>
<linearGradient id="paint5_linear_0_6" x1="372.46" y1="259.624" x2="372.46" y2="356.405" gradientUnits="userSpaceOnUse">
<stop stop-color="#FFDA5E"/>
<stop offset="1" stop-color="#E89540"/>
</linearGradient>
<linearGradient id="paint6_linear_0_6" x1="256.048" y1="192.657" x2="289.224" y2="262.575" gradientUnits="userSpaceOnUse">
<stop stop-color="#FFDA5E"/>
<stop offset="1" stop-color="#E89540"/>
</linearGradient>
<linearGradient id="paint7_linear_0_6" x1="315.563" y1="178.21" x2="318.244" y2="254.908" gradientUnits="userSpaceOnUse">
<stop stop-color="#FFDA5E"/>
<stop offset="1" stop-color="#E89540"/>
</linearGradient>
<linearGradient id="paint8_linear_0_6" x1="294.955" y1="219.938" x2="328.564" y2="358.401" gradientUnits="userSpaceOnUse">
<stop stop-color="#FFDA5E"/>
<stop offset="1" stop-color="#E89540"/>
</linearGradient>
</defs>
</svg>
